<svg width="270" height="270" viewBox="0 0 270 270" fill="none" xmlns="http://www.w3.org/2000/svg">
<path d="M228.031 8.60814C232.696 3.02579 238.905 -0.0603612 245.347 0.000894741C251.789 0.0621507 257.96 3.26603 262.558 8.93647C267.156 14.6069 269.821 22.3004 269.991 30.3935C270.162 38.4866 267.823 46.3464 263.47 52.3142L131.316 260.022C129.044 263.098 126.301 265.567 123.252 267.28C120.203 268.994 116.911 269.917 113.572 269.995C110.232 270.072 106.915 269.303 103.818 267.733C100.72 266.162 97.9068 263.823 95.5453 260.855L7.90633 150.715C5.46573 147.857 3.50819 144.411 2.15048 140.581C0.792776 136.752 0.0627153 132.618 0.00386591 128.426C-0.0549835 124.235 0.558585 120.071 1.80795 116.184C3.05732 112.296 4.91691 108.765 7.27576 105.801C9.63462 102.836 12.4444 100.499 15.5376 98.929C18.6307 97.3589 21.9438 96.5878 25.2792 96.6617C28.6146 96.7357 31.904 97.6532 34.9512 99.3595C37.9983 101.066 40.7407 103.526 43.0149 106.593L112.371 193.714L227.401 9.5239L228.031 8.60814Z" fill="#5ADC1E"/>
</svg>
