<svg width="270" height="270" viewBox="0 0 270 270" fill="none" xmlns="http://www.w3.org/2000/svg">
<path d="M7.41737 7.41737C9.7654 5.066 12.554 3.2006 15.6235 1.92785C18.6931 0.655112 21.9835 0 25.3065 0C28.6294 0 31.9198 0.655112 34.9894 1.92785C38.059 3.2006 40.8475 5.066 43.1956 7.41737L135.004 99.1918L226.812 7.41737C229.161 5.06814 231.95 3.20463 235.019 1.93324C238.089 0.661844 241.379 0.007468 244.701 0.00746793C248.023 0.00746787 251.313 0.661844 254.382 1.93324C257.452 3.20463 260.241 5.06814 262.59 7.41737C264.939 9.7666 266.803 12.5555 268.074 15.625C269.346 18.6944 270 21.9842 270 25.3065C270 28.6288 269.346 31.9186 268.074 34.988C266.803 38.0574 264.939 40.8463 262.59 43.1956L170.816 135.004L262.59 226.812C267.335 231.556 270 237.991 270 244.701C270 251.411 267.335 257.846 262.59 262.59C257.846 267.335 251.411 270 244.701 270C237.991 270 231.556 267.335 226.812 262.59L135.004 170.816L43.1956 262.59C38.4511 267.335 32.0162 270 25.3065 270C18.5968 270 12.1619 267.335 7.41737 262.59C2.67289 257.846 0.00746793 251.411 0.00746793 244.701C0.00746793 237.991 2.67289 231.556 7.41737 226.812L99.1918 135.004L7.41737 43.1956C5.066 40.8475 3.2006 38.059 1.92785 34.9894C0.655112 31.9198 0 28.6294 0 25.3065C0 21.9835 0.655112 18.6931 1.92785 15.6235C3.2006 12.554 5.066 9.7654 7.41737 7.41737Z" fill="#FF0000"/>
</svg>
